<svg width="148" height="35" viewBox="0 0 148 35" fill="none" xmlns="http://www.w3.org/2000/svg">
<path d="M12.7679 10.8888C8.87513 7.10116 11.5566 0.5 16.988 0.5C22.4193 0.5 25.1008 7.10116 21.208 10.8888L16.988 14.9947L12.7679 10.8888Z" fill="#CBEA7B"/>
<path d="M12.7923 24.1112C8.89955 27.8988 11.581 34.5 17.0124 34.5C22.4438 34.5 25.1252 27.8988 21.2324 24.1112L17.0124 20.0053L12.7923 24.1112Z" fill="#CBEA7B"/>
<path d="M10.3888 21.7321C6.60116 25.6249 0 22.9434 0 17.512C0 12.0807 6.60116 9.39919 10.3888 13.292L14.4947 17.512L10.3888 21.7321Z" fill="#CBEA7B"/>
<path d="M23.6112 21.7077C27.3988 25.6005 34 22.919 34 17.4876C34 12.0562 27.3988 9.37477 23.6112 13.2676L19.5053 17.4876L23.6112 21.7077Z" fill="#CBEA7B"/>
<path d="M49.1099 20.1008V11.5498H51.6939V23.4498H47.9709L42.7519 14.9158H42.4629V23.4498H39.8789V11.5498H43.3639V11.5668H43.6019L48.8039 20.1008H49.1099Z" fill="white"/>
<path d="M61.0949 13.9128H63.6789V23.4498H61.0949V22.0558H60.9759C60.3639 22.9058 59.4969 23.4498 57.7799 23.4498C53.7509 23.4498 53.6489 20.0838 53.6489 18.6898V13.9128H56.2159V18.6898C56.2159 19.4378 56.0459 21.2398 58.5279 21.2398C60.7549 21.2398 61.0949 19.8118 61.0949 18.5198V13.9128Z" fill="white"/>
<path d="M69.1529 16.1228V19.5058V19.7098C69.1529 21.0868 69.7649 20.8998 72.2469 20.7638V23.2798C72.2469 23.2798 71.7369 23.4498 69.1529 23.4498C66.5519 23.4498 66.5519 21.3248 66.5519 19.9478V16.1228H65.2939V13.9468H66.5519V11.1928H69.1529V13.9468H72.2469V16.1228H69.1529Z" fill="white"/>
<path d="M79.525 13.9128C80.205 13.9128 80.766 14.0658 81.208 14.1678L80.8 16.5988C80.562 16.5308 79.899 16.3948 79.083 16.3948C77.162 16.3948 76.601 17.8908 76.601 19.1828V23.4498H74.017V13.9128H76.601V15.3238H76.754C77.298 14.4058 77.876 13.9128 79.525 13.9128Z" fill="white"/>
<path d="M85.1577 23.4498H82.5907V13.9808H85.1577V23.4498ZM85.1577 13.3008H82.5907V10.9888H85.1577V13.3008Z" fill="white"/>
<path d="M90.7901 16.1228V19.5058V19.7098C90.7901 21.0868 91.4021 20.8998 93.8841 20.7638V23.2798C93.8841 23.2798 93.3741 23.4498 90.7901 23.4498C88.1891 23.4498 88.1891 21.3248 88.1891 19.9478V16.1228H86.9311V13.9468H88.1891V11.1928H90.7901V13.9468H93.8841V16.1228H90.7901Z" fill="white"/>
<path d="M98.1714 23.4498H95.6044V13.9808H98.1714V23.4498ZM98.1714 13.3008H95.6044V10.9888H98.1714V13.3008Z" fill="white"/>
<path d="M105.249 13.7428C108.156 13.7428 110.57 15.2898 110.57 18.6048C110.57 21.9538 108.156 23.4498 105.249 23.4498C102.359 23.4498 99.9447 21.9028 99.9447 18.6048C99.9447 15.3238 102.359 13.7428 105.249 13.7428ZM105.249 21.1038C106.881 21.1038 108.037 20.3218 108.037 18.6048C108.037 16.8368 106.881 16.1058 105.249 16.1058C103.634 16.1058 102.478 16.8028 102.478 18.6048C102.478 20.3898 103.634 21.1038 105.249 21.1038Z" fill="white"/>
<path d="M118.203 13.9128C122.232 13.9128 122.334 17.2958 122.334 18.6898V23.4498H119.767V18.6898C119.767 17.9418 119.92 16.1398 117.455 16.1398C115.211 16.1398 114.888 17.5678 114.888 18.8598V23.4498H112.304V13.9128H114.888V15.3238H115.007C115.619 14.4738 116.486 13.9128 118.203 13.9128Z" fill="white"/>
<path d="M126.848 23.4498H124.281V13.9808H126.848V23.4498ZM126.848 13.3008H124.281V10.9888H126.848V13.3008Z" fill="white"/>
<path d="M133.521 17.6698C135.68 17.9928 138.128 18.3668 138.128 20.6278C138.128 22.9908 136.428 23.4498 133.504 23.4498C131.345 23.4498 129.866 23.0588 129.101 22.2938C128.438 21.6308 128.438 20.8318 128.455 20.3388V20.1518H131.107V20.2368C131.107 21.0528 131.719 21.4268 133.436 21.4268C134.473 21.4268 135.459 21.2908 135.459 20.6618C135.459 19.9478 134.541 19.8118 133.504 19.6928C133.368 19.6758 133.232 19.6588 133.096 19.6418C130.359 19.2848 128.659 18.6728 128.659 16.7688C128.659 15.4428 129.424 13.8618 133.096 13.8618C137.04 13.8618 137.873 15.6128 137.873 17.0748V17.1598H135.238V17.0748C135.238 16.3268 134.592 15.9188 133.096 15.9188C131.651 15.9188 131.345 16.4458 131.345 16.7348C131.345 17.1598 131.634 17.3978 133.3 17.6528L133.521 17.6698Z" fill="white"/>
<path d="M143.179 16.1228V19.5058V19.7098C143.179 21.0868 143.791 20.8998 146.273 20.7638V23.2798C146.273 23.2798 145.763 23.4498 143.179 23.4498C140.578 23.4498 140.578 21.3248 140.578 19.9478V16.1228H139.32V13.9468H140.578V11.1928H143.179V13.9468H146.273V16.1228H143.179Z" fill="white"/>
</svg>
