<svg width="130" height="30" viewBox="0 0 130 30" fill="none" xmlns="http://www.w3.org/2000/svg">
<path d="M11.2659 9.16654C7.83106 5.82455 10.1971 0 14.9894 0C19.7818 0 22.1478 5.82456 18.713 9.16655L14.9894 12.7895L11.2659 9.16654Z" fill="#CBEA7B"/>
<path d="M11.2874 20.8335C7.85254 24.1754 10.2186 30 15.0109 30C19.8033 30 22.1693 24.1754 18.7345 20.8335L15.0109 17.2105L11.2874 20.8335Z" fill="#CBEA7B"/>
<path d="M9.16654 18.7336C5.82455 22.1685 0 19.8024 0 15.0101C0 10.2177 5.82456 7.85168 9.16655 11.2865L12.7895 15.0101L9.16654 18.7336Z" fill="#CBEA7B"/>
<path d="M20.8335 18.7121C24.1754 22.147 30 19.781 30 14.9886C30 10.1962 24.1754 7.83019 20.8335 11.265L17.2105 14.9886L20.8335 18.7121Z" fill="#CBEA7B"/>
<path d="M43.3325 17.2949V9.74988H45.6125V20.2499H42.3275L37.7225 12.7199H37.4675V20.2499H35.1875V9.74988H38.2625V9.76488H38.4725L43.0625 17.2949H43.3325Z" fill="white"/>
<path d="M53.9075 11.8349H56.1875V20.2499H53.9075V19.0199H53.8025C53.2625 19.7699 52.4975 20.2499 50.9825 20.2499C47.4275 20.2499 47.3375 17.2799 47.3375 16.0499V11.8349H49.6025V16.0499C49.6025 16.7099 49.4525 18.2999 51.6425 18.2999C53.6075 18.2999 53.9075 17.0399 53.9075 15.8999V11.8349Z" fill="white"/>
<path d="M61.0175 13.7849V16.7699V16.9499C61.0175 18.1649 61.5575 17.9999 63.7475 17.8799V20.0999C63.7475 20.0999 63.2975 20.2499 61.0175 20.2499C58.7225 20.2499 58.7225 18.3749 58.7225 17.1599V13.7849H57.6125V11.8649H58.7225V9.43488H61.0175V11.8649H63.7475V13.7849H61.0175Z" fill="white"/>
<path d="M70.1694 11.8349C70.7694 11.8349 71.2644 11.9699 71.6544 12.0599L71.2944 14.2049C71.0844 14.1449 70.4994 14.0249 69.7794 14.0249C68.0844 14.0249 67.5894 15.3449 67.5894 16.4849V20.2499H65.3094V11.8349H67.5894V13.0799H67.7244C68.2044 12.2699 68.7144 11.8349 70.1694 11.8349Z" fill="white"/>
<path d="M75.1394 20.2499H72.8744V11.8949H75.1394V20.2499ZM75.1394 11.2949H72.8744V9.25488H75.1394V11.2949Z" fill="white"/>
<path d="M80.1091 13.7849V16.7699V16.9499C80.1091 18.1649 80.6491 17.9999 82.8391 17.8799V20.0999C82.8391 20.0999 82.3891 20.2499 80.1091 20.2499C77.8141 20.2499 77.8141 18.3749 77.8141 17.1599V13.7849H76.7041V11.8649H77.8141V9.43488H80.1091V11.8649H82.8391V13.7849H80.1091Z" fill="white"/>
<path d="M86.622 20.2499H84.357V11.8949H86.622V20.2499ZM86.622 11.2949H84.357V9.25488H86.622V11.2949Z" fill="white"/>
<path d="M92.8667 11.6849C95.4317 11.6849 97.5617 13.0499 97.5617 15.9749C97.5617 18.9299 95.4317 20.2499 92.8667 20.2499C90.3167 20.2499 88.1867 18.8849 88.1867 15.9749C88.1867 13.0799 90.3167 11.6849 92.8667 11.6849ZM92.8667 18.1799C94.3067 18.1799 95.3267 17.4899 95.3267 15.9749C95.3267 14.4149 94.3067 13.7699 92.8667 13.7699C91.4417 13.7699 90.4217 14.3849 90.4217 15.9749C90.4217 17.5499 91.4417 18.1799 92.8667 18.1799Z" fill="white"/>
<path d="M104.297 11.8349C107.852 11.8349 107.942 14.8199 107.942 16.0499V20.2499H105.677V16.0499C105.677 15.3899 105.812 13.7999 103.637 13.7999C101.657 13.7999 101.372 15.0599 101.372 16.1999V20.2499H99.0916V11.8349H101.372V13.0799H101.477C102.017 12.3299 102.782 11.8349 104.297 11.8349Z" fill="white"/>
<path d="M111.925 20.2499H109.66V11.8949H111.925V20.2499ZM111.925 11.2949H109.66V9.25488H111.925V11.2949Z" fill="white"/>
<path d="M117.813 15.1499C119.718 15.4349 121.878 15.7649 121.878 17.7599C121.878 19.8449 120.378 20.2499 117.798 20.2499C115.893 20.2499 114.588 19.9049 113.913 19.2299C113.328 18.6449 113.328 17.9399 113.343 17.5049V17.3399H115.683V17.4149C115.683 18.1349 116.223 18.4649 117.738 18.4649C118.653 18.4649 119.523 18.3449 119.523 17.7899C119.523 17.1599 118.713 17.0399 117.798 16.9349C117.678 16.9199 117.558 16.9049 117.438 16.8899C115.023 16.5749 113.523 16.0349 113.523 14.3549C113.523 13.1849 114.198 11.7899 117.438 11.7899C120.918 11.7899 121.653 13.3349 121.653 14.6249V14.6999H119.328V14.6249C119.328 13.9649 118.758 13.6049 117.438 13.6049C116.163 13.6049 115.893 14.0699 115.893 14.3249C115.893 14.6999 116.148 14.9099 117.618 15.1349L117.813 15.1499Z" fill="white"/>
<path d="M126.334 13.7849V16.7699V16.9499C126.334 18.1649 126.874 17.9999 129.064 17.8799V20.0999C129.064 20.0999 128.614 20.2499 126.334 20.2499C124.039 20.2499 124.039 18.3749 124.039 17.1599V13.7849H122.929V11.8649H124.039V9.43488H126.334V11.8649H129.064V13.7849H126.334Z" fill="white"/>
</svg>
