<svg width="148" height="34" viewBox="0 0 148 34" fill="none" xmlns="http://www.w3.org/2000/svg">
<path d="M12.7684 10.3888C8.87562 6.60116 11.5571 0 16.9885 0C22.4198 0 25.1013 6.60116 21.2085 10.3888L16.9885 14.4947L12.7684 10.3888Z" fill="#CBEA7B"/>
<path d="M12.7928 23.6112C8.90004 27.3988 11.5815 34 17.0129 34C22.4442 34 25.1257 27.3988 21.2329 23.6112L17.0129 19.5053L12.7928 23.6112Z" fill="#CBEA7B"/>
<path d="M10.3888 21.2321C6.60116 25.1249 0 22.4434 0 17.012C0 11.5807 6.60116 8.89919 10.3888 12.792L14.4947 17.012L10.3888 21.2321Z" fill="#CBEA7B"/>
<path d="M23.6112 21.2077C27.3988 25.1005 34 22.419 34 16.9876C34 11.5562 27.3988 8.87477 23.6112 12.7676L19.5053 16.9876L23.6112 21.2077Z" fill="#CBEA7B"/>
<path d="M49.1099 19.6008V11.0498H51.6939V22.9498H47.9709L42.7519 14.4158H42.4629V22.9498H39.8789V11.0498H43.3639V11.0668H43.6019L48.8039 19.6008H49.1099Z" fill="white"/>
<path d="M61.0949 13.4128H63.6789V22.9498H61.0949V21.5558H60.9759C60.3639 22.4058 59.4969 22.9498 57.7799 22.9498C53.7509 22.9498 53.6489 19.5838 53.6489 18.1898V13.4128H56.2159V18.1898C56.2159 18.9378 56.0459 20.7398 58.5279 20.7398C60.7549 20.7398 61.0949 19.3118 61.0949 18.0198V13.4128Z" fill="white"/>
<path d="M69.1529 15.6228V19.0058V19.2098C69.1529 20.5868 69.7649 20.3998 72.2469 20.2638V22.7798C72.2469 22.7798 71.7369 22.9498 69.1529 22.9498C66.5519 22.9498 66.5519 20.8248 66.5519 19.4478V15.6228H65.2939V13.4468H66.5519V10.6928H69.1529V13.4468H72.2469V15.6228H69.1529Z" fill="white"/>
<path d="M79.525 13.4128C80.205 13.4128 80.766 13.5658 81.208 13.6678L80.8 16.0988C80.562 16.0308 79.899 15.8948 79.083 15.8948C77.162 15.8948 76.601 17.3908 76.601 18.6828V22.9498H74.017V13.4128H76.601V14.8238H76.754C77.298 13.9058 77.876 13.4128 79.525 13.4128Z" fill="white"/>
<path d="M85.1577 22.9498H82.5907V13.4808H85.1577V22.9498ZM85.1577 12.8008H82.5907V10.4888H85.1577V12.8008Z" fill="white"/>
<path d="M90.7901 15.6228V19.0058V19.2098C90.7901 20.5868 91.4021 20.3998 93.8841 20.2638V22.7798C93.8841 22.7798 93.3741 22.9498 90.7901 22.9498C88.1891 22.9498 88.1891 20.8248 88.1891 19.4478V15.6228H86.9311V13.4468H88.1891V10.6928H90.7901V13.4468H93.8841V15.6228H90.7901Z" fill="white"/>
<path d="M98.1714 22.9498H95.6044V13.4808H98.1714V22.9498ZM98.1714 12.8008H95.6044V10.4888H98.1714V12.8008Z" fill="white"/>
<path d="M105.249 13.2428C108.156 13.2428 110.57 14.7898 110.57 18.1048C110.57 21.4538 108.156 22.9498 105.249 22.9498C102.359 22.9498 99.9447 21.4028 99.9447 18.1048C99.9447 14.8238 102.359 13.2428 105.249 13.2428ZM105.249 20.6038C106.881 20.6038 108.037 19.8218 108.037 18.1048C108.037 16.3368 106.881 15.6058 105.249 15.6058C103.634 15.6058 102.478 16.3028 102.478 18.1048C102.478 19.8898 103.634 20.6038 105.249 20.6038Z" fill="white"/>
<path d="M118.203 13.4128C122.232 13.4128 122.334 16.7958 122.334 18.1898V22.9498H119.767V18.1898C119.767 17.4418 119.92 15.6398 117.455 15.6398C115.211 15.6398 114.888 17.0678 114.888 18.3598V22.9498H112.304V13.4128H114.888V14.8238H115.007C115.619 13.9738 116.486 13.4128 118.203 13.4128Z" fill="white"/>
<path d="M126.848 22.9498H124.281V13.4808H126.848V22.9498ZM126.848 12.8008H124.281V10.4888H126.848V12.8008Z" fill="white"/>
<path d="M133.521 17.1698C135.68 17.4928 138.128 17.8668 138.128 20.1278C138.128 22.4908 136.428 22.9498 133.504 22.9498C131.345 22.9498 129.866 22.5588 129.101 21.7938C128.438 21.1308 128.438 20.3318 128.455 19.8388V19.6518H131.107V19.7368C131.107 20.5528 131.719 20.9268 133.436 20.9268C134.473 20.9268 135.459 20.7908 135.459 20.1618C135.459 19.4478 134.541 19.3118 133.504 19.1928C133.368 19.1758 133.232 19.1588 133.096 19.1418C130.359 18.7848 128.659 18.1728 128.659 16.2688C128.659 14.9428 129.424 13.3618 133.096 13.3618C137.04 13.3618 137.873 15.1128 137.873 16.5748V16.6598H135.238V16.5748C135.238 15.8268 134.592 15.4188 133.096 15.4188C131.651 15.4188 131.345 15.9458 131.345 16.2348C131.345 16.6598 131.634 16.8978 133.3 17.1528L133.521 17.1698Z" fill="white"/>
<path d="M143.179 15.6228V19.0058V19.2098C143.179 20.5868 143.791 20.3998 146.273 20.2638V22.7798C146.273 22.7798 145.763 22.9498 143.179 22.9498C140.578 22.9498 140.578 20.8248 140.578 19.4478V15.6228H139.32V13.4468H140.578V10.6928H143.179V13.4468H146.273V15.6228H143.179Z" fill="white"/>
</svg>
