<svg width="48" height="48" viewBox="0 0 48 48" fill="none" xmlns="http://www.w3.org/2000/svg">
<rect width="48" height="48" rx="24" fill="#234338"/>
<path fill-rule="evenodd" clip-rule="evenodd" d="M24.0002 30C23.5031 30 23.1002 29.5971 23.1002 29.1L23.1002 21.1345L20.7489 23.7238C20.4044 24.0821 19.8347 24.0933 19.4764 23.7487C19.1181 23.4042 19.1069 22.8345 19.4514 22.4762L23.3514 18.2762C23.5211 18.0997 23.7554 18 24.0002 18C24.245 18 24.4793 18.0997 24.6489 18.2762L28.5489 22.4762C28.8935 22.8345 28.8823 23.4042 28.524 23.7487C28.1657 24.0933 27.596 24.0821 27.2514 23.7238L24.9002 21.1345V29.1C24.9002 29.5971 24.4973 30 24.0002 30Z" fill="white"/>
</svg>
